# xmcd
#
# Track frame offsets: 
#        150
#        9972
#        22582
#        35653
#        46582
#        56670
#        65755
#        77161
#        88999
#        100559
#        112515
#        123062
#        133400
#        143536
#        156896
#        166586
#
# Disc length: 2386 seconds
#
# Revision: 1
# Processed by: cddbd v1.5.2PL0 Copyright (c) Steve Scherf et al.
# Submitted via: ExactAudioCopyFreeDBPlugin 1.0
#
DISCID=b7095010
DTITLE=Various Artist - Golden Age of Country ''Honky Tonk Man'' - CD
DTITLE=02
DYEAR=2011
DGENRE=Country
TTITLE0=Dave Dudley - Six Days to the Road
TTITLE1=Bill Anderson - Still
TTITLE2=Bobby Helms - Fräulein
TTITLE3=Johnny Cash - Daddy Sang Bass
TTITLE4=Johnny Horton - Honky Tonk Man
TTITLE5=Buck Owens - Love's Gonna Live Here
TTITLE6=Carl Smith - Hey Joe
TTITLE7=Tennessee Ernie Ford - Shot Gun Boogie
TTITLE8=Wynn Stewart - It's Such a Pretty World Today
TTITLE9=Henson Cargill - Skip a Rope
TTITLE10=Cowboy Copas - Alabam
TTITLE11=Billy Walker - Charlie's Shoes
TTITLE12=Sonny James - You're the Only World I Know
TTITLE13=Carl Butler and Pearl - Don't Let Me Cross Over
TTITLE14=Webb Pierce - In the Jailhouse Now
TTITLE15=Hank Snow - I've Been Everywhere
EXTD=
EXTT0=
EXTT1=
EXTT2=
EXTT3=
EXTT4=
EXTT5=
EXTT6=
EXTT7=
EXTT8=
EXTT9=
EXTT10=
EXTT11=
EXTT12=
EXTT13=
EXTT14=
EXTT15=
PLAYORDER=
